<svg xmlns="http://www.w3.org/2000/svg" xmlns:xlink="http://www.w3.org/1999/xlink" version="1.1" width="1000" height="1000" viewBox="0 0 1000 1000" xml:space="preserve">
<desc>Created with Fabric.js 3.5.0</desc>
<defs>
</defs>
<rect x="0" y="0" width="100%" height="100%" fill="#ffffff"/>
<g transform="matrix(0.5075 0 0 0.5075 266.3357 274.7327)" id="584327">
<g style="" vector-effect="non-scaling-stroke">
		<g transform="matrix(1 0 0 1 -321.41 -127.47)" id="Layer_1-2">
<path style="stroke: none; stroke-width: 1; stroke-dasharray: none; stroke-linecap: butt; stroke-dashoffset: 0; stroke-linejoin: miter; stroke-miterlimit: 4; is-custom-font: none; font-file-url: none; fill: rgb(215,215,215); fill-rule: nonzero; opacity: 1;" transform=" translate(-85.665, -86.865)" d="M 0 0.73 h 40.13 l 45.06 131.21 h 0.7 L 130.96 0.73 h 40.37 v 172.27 h -28.87 V 51.27 h -0.94 c -1.41 5.35 -2.82 11.18 -5.4 18.47 l -36.85 103.26 h -26.99 l -36.85 -103.26 c -2.58 -7.29 -4.22 -13.12 -5.4 -18.47 h -0.94 v 121.73 H 0 V 0.73 Z" stroke-linecap="round"/>
</g>
		<g transform="matrix(1 0 0 1 -145.16 -108.645)" id="Layer_1-2">
<path style="stroke: none; stroke-width: 1; stroke-dasharray: none; stroke-linecap: butt; stroke-dashoffset: 0; stroke-linejoin: miter; stroke-miterlimit: 4; is-custom-font: none; font-file-url: none; fill: rgb(215,215,215); fill-rule: nonzero; opacity: 1;" transform=" translate(-261.915, -105.69)" d="M 190.57 105.69 c 0 -39.36 27.22 -70.95 64.07 -70.95 c 23 0 40.84 12.88 49.05 30.61 h 0.94 v -26.73 h 28.63 v 134.37 h -28.63 v -26.24 h -0.94 c -11.27 21.14 -28.16 29.89 -49.05 29.89 c -36.85 0 -64.07 -31.59 -64.07 -70.95 Z M 300.41 105.69 c 0 -24.3 -16.19 -42.28 -39.66 -42.28 s -39.19 17.98 -39.19 42.28 s 15.96 42.28 39.19 42.28 s 39.66 -18.22 39.66 -42.28 Z" stroke-linecap="round"/>
</g>
		<g transform="matrix(1 0 0 1 -9.15 -108.52)" id="Layer_1-2">
<path style="stroke: none; stroke-width: 1; stroke-dasharray: none; stroke-linecap: butt; stroke-dashoffset: 0; stroke-linejoin: miter; stroke-miterlimit: 4; is-custom-font: none; font-file-url: none; fill: rgb(215,215,215); fill-rule: nonzero; opacity: 1;" transform=" translate(-397.925, -105.815)" d="M 358.85 38.63 h 78.15 v 28.43 h -48.58 v 105.94 h -29.57 V 38.63 Z" stroke-linecap="round"/>
</g>
		<g transform="matrix(1 0 0 1 97.505 -127.835)" id="Layer_1-2">
<path style="stroke: none; stroke-width: 1; stroke-dasharray: none; stroke-linecap: butt; stroke-dashoffset: 0; stroke-linejoin: miter; stroke-miterlimit: 4; is-custom-font: none; font-file-url: none; fill: rgb(215,215,215); fill-rule: nonzero; opacity: 1;" transform=" translate(-504.58, -86.5)" d="M 448.26 0 h 29.57 v 88.44 h 17.6 l 29.81 -50.3 h 31.92 l -30.51 50.3 h 34.26 v 84.56 h -29.34 v -55.88 h -53.75 v 55.88 h -29.57 V 0 Z" stroke-linecap="round"/>
</g>
		<g transform="matrix(1 0 0 1 235.27 -108.515)" id="Layer_1-2">
<path style="stroke: none; stroke-width: 1; stroke-dasharray: none; stroke-linecap: butt; stroke-dashoffset: 0; stroke-linejoin: miter; stroke-miterlimit: 4; is-custom-font: none; font-file-url: none; fill: rgb(215,215,215); fill-rule: nonzero; opacity: 1;" transform=" translate(-642.345, -105.82)" d="M 571.71 105.21 c 0 -39.36 30.98 -70.22 70.64 -70.22 s 70.64 30.86 70.64 71.19 c 0 2.19 -0.23 6.07 -0.94 9.72 h -108.9 c 3.28 18.47 19.95 32.32 39.66 32.32 c 15.49 0 28.4 -7.53 34.5 -21.14 h 32.39 c -9.15 28.91 -34.97 49.57 -67.36 49.57 c -39.66 0 -70.64 -32.07 -70.64 -71.43 Z M 680.38 92.82 c -2.58 -16.04 -17.84 -29.4 -38.49 -29.4 s -36.14 12.39 -38.26 29.4 h 76.75 Z" stroke-linecap="round"/>
</g>
		<g transform="matrix(1 0 0 1 341.125 -127.47)" id="Layer_1-2">
<path style="stroke: none; stroke-width: 1; stroke-dasharray: none; stroke-linecap: butt; stroke-dashoffset: 0; stroke-linejoin: miter; stroke-miterlimit: 4; is-custom-font: none; font-file-url: none; fill: rgb(215,215,215); fill-rule: nonzero; opacity: 1;" transform=" translate(-748.2, -86.865)" d="M 733.18 67.06 h -19.95 v -28.43 h 19.95 V 0.73 h 29.34 v 37.9 h 20.65 v 28.43 h -20.65 v 77.51 h 19.95 v 28.43 h -49.29 v -105.94 Z" stroke-linecap="round"/>
</g>
		<g transform="matrix(1 0 0 1 -358.61 89.45)" id="Layer_1-2">
<path style="stroke: none; stroke-width: 1; stroke-dasharray: none; stroke-linecap: butt; stroke-dashoffset: 0; stroke-linejoin: miter; stroke-miterlimit: 4; is-custom-font: none; font-file-url: none; fill: rgb(215,215,215); fill-rule: nonzero; opacity: 1;" transform=" translate(-48.465, -303.785)" d="M 0 217.53 h 29.1 v 143.84 h 67.83 v 28.67 H 0 v -172.51 Z" stroke-linecap="round"/>
</g>
		<g transform="matrix(1 0 0 1 -241.15 108.285)" id="Layer_1-2">
<path style="stroke: none; stroke-width: 1; stroke-dasharray: none; stroke-linecap: butt; stroke-dashoffset: 0; stroke-linejoin: miter; stroke-miterlimit: 4; is-custom-font: none; font-file-url: none; fill: rgb(215,215,215); fill-rule: nonzero; opacity: 1;" transform=" translate(-165.925, -322.62)" d="M 95.29 322.01 c 0 -39.36 30.98 -70.22 70.64 -70.22 s 70.64 30.86 70.64 71.19 c 0 2.19 -0.23 6.07 -0.94 9.72 h -108.9 c 3.29 18.46 19.95 32.32 39.66 32.32 c 15.49 0 28.4 -7.53 34.5 -21.14 h 32.39 c -9.15 28.92 -34.97 49.57 -67.36 49.57 c -39.66 0 -70.64 -32.07 -70.64 -71.43 Z M 203.95 309.61 c -2.58 -16.04 -17.84 -29.4 -38.49 -29.4 s -36.14 12.39 -38.26 29.4 h 76.75 Z" stroke-linecap="round"/>
</g>
		<g transform="matrix(1 0 0 1 -90.95 108.155)" id="Layer_1-2">
<path style="stroke: none; stroke-width: 1; stroke-dasharray: none; stroke-linecap: butt; stroke-dashoffset: 0; stroke-linejoin: miter; stroke-miterlimit: 4; is-custom-font: none; font-file-url: none; fill: rgb(215,215,215); fill-rule: nonzero; opacity: 1;" transform=" translate(-316.125, -322.49)" d="M 244.78 322.49 c 0 -39.36 27.22 -70.95 64.07 -70.95 c 23 0 40.84 12.88 49.05 30.61 h 0.94 v -26.73 h 28.63 v 134.37 h -28.63 v -26.24 h -0.94 c -11.27 21.14 -28.16 29.89 -49.05 29.89 c -36.85 0 -64.07 -31.59 -64.07 -70.95 Z M 354.62 322.49 c 0 -24.3 -16.19 -42.28 -39.66 -42.28 s -39.19 17.98 -39.19 42.28 s 15.96 42.28 39.19 42.28 s 39.66 -18.22 39.66 -42.28 Z" stroke-linecap="round"/>
</g>
		<g transform="matrix(1 0 0 1 59.265 127.71)" id="Layer_1-2">
<path style="stroke: none; stroke-width: 1; stroke-dasharray: none; stroke-linecap: butt; stroke-dashoffset: 0; stroke-linejoin: miter; stroke-miterlimit: 4; is-custom-font: none; font-file-url: none; fill: rgb(215,215,215); fill-rule: nonzero; opacity: 1;" transform=" translate(-466.34, -342.045)" d="M 406.25 391.25 h 28.4 v 12.39 h 74.63 v -4.86 c -4.46 -0.24 -8.68 -1.46 -12.67 -2.92 l -52.34 -15.31 c -27.93 -8.51 -42.95 -34.5 -42.95 -61.23 c 0 -35.72 27.69 -63.9 64.07 -63.9 h 65.25 v 20.9 h -13.61 c -2.82 0 -4.22 -0.49 -6.81 -0.97 h -1.17 c 11.74 10.69 19.25 26.24 19.25 43.98 c 0 25.51 -15.02 46.41 -34.73 52.24 v 1.46 c 5.63 0 10.09 0.49 14.32 1.7 l 23.47 6.8 v 47.14 h -125.09 v -37.42 Z M 498.96 319.33 c 0 -19.92 -14.32 -34.99 -33.56 -35.23 c -20.89 0.24 -34.5 15.06 -34.5 35.23 s 14.32 35.23 33.8 35.23 s 34.27 -15.06 34.27 -35.23 Z" stroke-linecap="round"/>
</g>
		<g transform="matrix(1 0 0 1 198.195 110.1)" id="Layer_1-2">
<path style="stroke: none; stroke-width: 1; stroke-dasharray: none; stroke-linecap: butt; stroke-dashoffset: 0; stroke-linejoin: miter; stroke-miterlimit: 4; is-custom-font: none; font-file-url: none; fill: rgb(215,215,215); fill-rule: nonzero; opacity: 1;" transform=" translate(-605.27, -324.435)" d="M 549.65 337.56 v -82.13 h 29.1 v 83.83 c 0 16.77 10.8 25.76 26.52 25.76 s 26.05 -9.96 26.05 -25.76 v -83.83 h 29.57 v 82.13 c 0 33.04 -23.47 55.88 -55.62 55.88 s -55.62 -22.84 -55.62 -55.88 Z" stroke-linecap="round"/>
</g>
		<g transform="matrix(1 0 0 1 336.42 108.285)" id="Layer_1-2">
<path style="stroke: none; stroke-width: 1; stroke-dasharray: none; stroke-linecap: butt; stroke-dashoffset: 0; stroke-linejoin: miter; stroke-miterlimit: 4; is-custom-font: none; font-file-url: none; fill: rgb(215,215,215); fill-rule: nonzero; opacity: 1;" transform=" translate(-743.495, -322.62)" d="M 672.86 322.01 c 0 -39.36 30.98 -70.22 70.64 -70.22 s 70.64 30.86 70.64 71.19 c 0 2.19 -0.23 6.07 -0.94 9.72 h -108.9 c 3.28 18.46 19.95 32.32 39.66 32.32 c 15.49 0 28.4 -7.53 34.5 -21.14 h 32.39 c -9.15 28.92 -34.97 49.57 -67.36 49.57 c -39.66 0 -70.64 -32.07 -70.64 -71.43 Z M 781.53 309.61 c -2.58 -16.04 -17.84 -29.4 -38.49 -29.4 s -36.14 12.39 -38.26 29.4 h 76.75 Z" stroke-linecap="round"/>
</g>
</g>
</g>
<g transform="matrix(0.4506 0 0 0.4506 266.3357 739.4114)" id="929355">
<g style="" vector-effect="non-scaling-stroke">
		<g transform="matrix(1 0 0 1 -128.125 82.445)" id="Layer_1-2">
<path style="stroke: none; stroke-width: 1; stroke-dasharray: none; stroke-linecap: butt; stroke-dashoffset: 0; stroke-linejoin: miter; stroke-miterlimit: 4; is-custom-font: none; font-file-url: none; fill: rgb(215,215,215); fill-rule: nonzero; opacity: 1;" transform=" translate(-174.44, -462.32)" d="M 174.18 504.58 c -34.79 0 -61.53 -26.08 -61.53 -57.68 v -26.84 h 123.58 v 26.84 c 0 31.6 -27 57.68 -62.05 57.68 Z" stroke-linecap="round"/>
</g>
		<g transform="matrix(1 0 0 1 -0.305 155.7)" id="Layer_1-2">
<path style="stroke: none; stroke-width: 1; stroke-dasharray: none; stroke-linecap: butt; stroke-dashoffset: 0; stroke-linejoin: miter; stroke-miterlimit: 4; is-custom-font: none; font-file-url: none; fill: rgb(215,215,215); fill-rule: nonzero; opacity: 1;" transform=" translate(-302.26, -535.575)" d="M 368.26 420.07 v 26.82 c 0 31.6 26.73 57.68 61.52 57.68 s 62.07 -26.08 62.07 -57.68 v -26.82 h -123.59 Z M 368.26 420.07 v 26.82 c 0 31.6 26.73 57.68 61.52 57.68 s 62.07 -26.08 62.07 -57.68 v -26.82 h -123.59 Z M 368.26 420.07 v 26.82 c 0 31.6 26.73 57.68 61.52 57.68 s 62.07 -26.08 62.07 -57.68 v -26.82 h -123.59 Z M 368.26 420.07 v 26.82 c 0 31.6 26.73 57.68 61.52 57.68 s 62.07 -26.08 62.07 -57.68 v -26.82 h -123.59 Z M 573.58 311.4 H 30.93 c -4.06 35.68 -6.49 77.86 -6.49 128.15 c 0 106.26 27.57 190.61 78.68 241.73 c 47.73 48.5 115.99 75.84 199.14 78.47 c 83.15 -2.63 151.4 -29.96 199.14 -78.47 c 51.11 -51.11 78.68 -135.47 78.68 -241.73 c 0 -50.29 -2.44 -92.47 -6.49 -128.15 Z M 82.28 446.9 v -57.68 h 184.34 v 57.68 c 0 49.4 -41.29 88.78 -92.42 88.78 s -91.91 -39.38 -91.91 -88.78 Z M 467.11 603.42 c -10.02 10.43 -69.87 70.72 -165.82 70.31 c -94.81 -0.39 -153.77 -59.76 -163.89 -70.31 v -30.4 c 12.53 11.81 72.12 65.36 164.76 65.41 c 92.76 0.02 152.44 -53.62 164.95 -65.41 v 30.4 Z M 522.23 446.9 c 0 49.4 -41.29 88.78 -92.45 88.78 s -91.89 -39.38 -91.89 -88.78 v -57.68 h 184.34 v 57.68 Z M 429.78 504.58 c 35.06 0 62.07 -26.08 62.07 -57.68 v -26.82 h -123.59 v 26.82 c 0 31.6 26.73 57.68 61.52 57.68 Z M 368.26 420.07 v 26.82 c 0 31.6 26.73 57.68 61.52 57.68 s 62.07 -26.08 62.07 -57.68 v -26.82 h -123.59 Z M 368.26 420.07 v 26.82 c 0 31.6 26.73 57.68 61.52 57.68 s 62.07 -26.08 62.07 -57.68 v -26.82 h -123.59 Z M 368.26 420.07 v 26.82 c 0 31.6 26.73 57.68 61.52 57.68 s 62.07 -26.08 62.07 -57.68 v -26.82 h -123.59 Z M 368.26 420.07 v 26.82 c 0 31.6 26.73 57.68 61.52 57.68 s 62.07 -26.08 62.07 -57.68 v -26.82 h -123.59 Z" stroke-linecap="round"/>
</g>
		<g transform="matrix(1 0 0 1 -0.02 -187)" id="Layer_1-2">
<path style="stroke: none; stroke-width: 1; stroke-dasharray: none; stroke-linecap: butt; stroke-dashoffset: 0; stroke-linejoin: miter; stroke-miterlimit: 4; is-custom-font: none; font-file-url: none; fill: rgb(215,215,215); fill-rule: nonzero; opacity: 1;" transform=" translate(-302.545, -192.875)" d="M 573.99 85.73 v 224.68 c 0 0.56 -0.43 0.99 -0.99 0.99 h -51.4 c -0.56 0 -0.99 -0.43 -0.99 -0.99 v -165.55 c 0 -0.53 -0.43 -0.97 -0.99 -0.97 c -0.43 0 -0.8 0.27 -0.92 0.68 c -2.15 7.19 -5.12 15.02 -9.71 24.72 l -67.31 141.55 c -0.17 0.34 -0.51 0.56 -0.89 0.56 h -48.26 c -0.39 0 -0.72 -0.22 -0.89 -0.56 l -67.31 -141.55 c -1.93 -4.1 -9.34 -20.76 -17.43 -38.99 c -1.13 -2.58 -2.29 -5.19 -3.45 -7.82 c -0.36 -0.77 -1.45 -0.77 -1.81 0 c -1.16 2.63 -2.32 5.24 -3.45 7.82 c -8.09 18.23 -15.5 34.89 -17.43 38.99 l -67.31 141.55 c -0.17 0.34 -0.51 0.56 -0.89 0.56 h -48.26 c -0.39 0 -0.72 -0.22 -0.89 -0.56 l -67.31 -141.55 c -4.56 -9.71 -7.56 -17.53 -9.71 -24.72 c -0.12 -0.41 -0.48 -0.68 -0.92 -0.68 c -0.56 0 -0.99 0.43 -0.99 0.97 v 165.55 c 0 0.56 -0.43 0.99 -0.99 0.99 h -51.4 c -0.56 0 -0.99 -0.43 -0.99 -0.99 V 85.03 c 2.85 4.8 6.69 8.96 11.23 12.19 c 6.42 4.51 14.24 7.17 22.67 7.17 c 18.52 0 34.09 -12.82 38.32 -30.03 h 0.77 c 0.39 0 0.72 0.22 0.89 0.56 l 6.4 14 l 6.37 13.93 l 69.34 151.48 c 0.17 0.34 0.51 0.58 0.89 0.58 h 0.05 c 0.36 0 0.72 -0.24 0.87 -0.58 l 66.2 -144.6 l 5.84 -12.77 l 6.37 -13.91 c 6.45 12.94 19.85 21.87 35.27 21.87 s 28.8 -8.88 35.25 -21.8 l 6.35 13.91 l 5.84 12.75 l 66.18 144.55 c 0.14 0.34 0.51 0.58 0.89 0.58 h 0.02 c 0.39 0 0.72 -0.24 0.89 -0.58 l 69.22 -151.26 l 6.4 -13.96 l 6.49 -14.2 c 0.17 -0.34 0.51 -0.56 0.89 -0.56 h 0.75 c 4.01 17.48 19.7 30.57 38.41 30.57 c 13.76 0 25.88 -7.07 32.93 -17.75 c 0.31 -0.48 0.63 -0.94 0.89 -1.45 Z" stroke-linecap="round"/>
</g>
		<g transform="matrix(1 0 0 1 -237.595 -314.915)" id="Layer_1-2">
<path style="stroke: none; stroke-width: 1; stroke-dasharray: none; stroke-linecap: butt; stroke-dashoffset: 0; stroke-linejoin: miter; stroke-miterlimit: 4; is-custom-font: none; font-file-url: none; fill: rgb(215,215,215); fill-rule: nonzero; opacity: 1;" transform=" translate(-64.97, -64.96)" d="M 64.97 0 C 29.17 0 0 29.14 0 64.97 c 0 23.42 12.46 43.97 31.07 55.39 c 3.52 2.17 7.29 4.01 11.23 5.48 c 7.05 2.66 14.7 4.08 22.67 4.08 c 21.71 0 40.95 -10.7 52.75 -27.07 c 2.03 -2.82 3.84 -5.79 5.41 -8.93 c 4.37 -8.72 6.81 -18.57 6.81 -28.95 C 129.94 29.14 100.8 0 64.97 0 Z M 64.97 104.4 c -8.43 0 -16.25 -2.66 -22.67 -7.17 c -4.54 -3.24 -8.38 -7.39 -11.23 -12.19 c -3.53 -5.87 -5.53 -12.75 -5.53 -20.06 c 0 -21.75 17.7 -39.45 39.43 -39.45 s 39.45 17.7 39.45 39.45 c 0 3.24 -0.39 6.4 -1.13 9.39 c -4.23 17.21 -19.8 30.03 -38.32 30.03 Z" stroke-linecap="round"/>
</g>
		<g transform="matrix(1 0 0 1 0.005 -314.385)" id="Layer_1-2">
<path style="stroke: none; stroke-width: 1; stroke-dasharray: none; stroke-linecap: butt; stroke-dashoffset: 0; stroke-linejoin: miter; stroke-miterlimit: 4; is-custom-font: none; font-file-url: none; fill: rgb(215,215,215); fill-rule: nonzero; opacity: 1;" transform=" translate(-302.57, -65.49)" d="M 302.57 13.28 c -28.83 0 -52.2 23.37 -52.2 52.22 c 0 11.37 3.65 21.9 9.8 30.47 c 0.24 0.34 0.48 0.65 0.75 0.99 c 8.74 11.59 22.24 19.39 37.59 20.57 c 1.33 0.12 2.68 0.17 4.06 0.17 c 1.55 0 3.04 -0.07 4.54 -0.19 c 15.11 -1.3 28.39 -9.05 37.06 -20.47 c 0.39 -0.48 0.75 -0.99 1.11 -1.5 c 5.99 -8.5 9.49 -18.86 9.49 -30.03 c 0 -28.85 -23.37 -52.22 -52.2 -52.22 Z M 302.57 104.93 c -15.43 0 -28.83 -8.93 -35.27 -21.87 c -0.24 -0.41 -0.43 -0.82 -0.63 -1.26 c -2.25 -4.97 -3.53 -10.48 -3.53 -16.3 c 0 -21.75 17.67 -39.45 39.43 -39.45 s 39.45 17.7 39.45 39.45 c 0 5.6 -1.18 10.91 -3.31 15.74 c -0.27 0.63 -0.58 1.26 -0.89 1.88 c -6.45 12.92 -19.82 21.8 -35.25 21.8 Z" stroke-linecap="round"/>
</g>
		<g transform="matrix(1 0 0 1 0.005 -314.385)" id="Layer_1-2">
<path style="stroke: none; stroke-width: 1; stroke-dasharray: none; stroke-linecap: butt; stroke-dashoffset: 0; stroke-linejoin: miter; stroke-miterlimit: 4; is-custom-font: none; font-file-url: none; fill: rgb(215,215,215); fill-rule: nonzero; opacity: 1;" transform=" translate(-302.57, -65.49)" d="M 302.57 0.53 c -35.8 0 -64.97 29.14 -64.97 64.97 c 0 16.66 6.33 31.89 16.68 43.39 c 0.27 0.29 0.51 0.58 0.8 0.85 c 9.78 10.55 23.11 17.82 38.03 20.01 c 1.67 0.24 3.36 0.43 5.07 0.56 c 1.45 0.1 2.92 0.14 4.39 0.14 s 2.9 -0.05 4.32 -0.14 c 1.91 -0.12 3.79 -0.34 5.65 -0.63 c 14.68 -2.25 27.79 -9.46 37.47 -19.89 c 0.41 -0.41 0.8 -0.84 1.18 -1.28 c 10.19 -11.47 16.35 -26.53 16.35 -43 c 0 -35.83 -29.14 -64.97 -64.97 -64.97 Z M 338.71 81.24 c -0.27 0.63 -0.58 1.26 -0.89 1.88 c -6.45 12.92 -19.82 21.8 -35.25 21.8 s -28.83 -8.93 -35.27 -21.87 c -0.24 -0.41 -0.43 -0.82 -0.63 -1.26 c -2.25 -4.97 -3.53 -10.48 -3.53 -16.3 c 0 -21.75 17.67 -39.45 39.43 -39.45 s 39.45 17.7 39.45 39.45 c 0 5.6 -1.18 10.91 -3.31 15.74 Z" stroke-linecap="round"/>
</g>
		<g transform="matrix(1 0 0 1 237.59 -314.385)" id="Layer_1-2">
<path style="stroke: none; stroke-width: 1; stroke-dasharray: none; stroke-linecap: butt; stroke-dashoffset: 0; stroke-linejoin: miter; stroke-miterlimit: 4; is-custom-font: none; font-file-url: none; fill: rgb(215,215,215); fill-rule: nonzero; opacity: 1;" transform=" translate(-540.155, -65.49)" d="M 540.16 13.28 c -28.83 0 -52.2 23.37 -52.2 52.22 c 0 8.5 2.03 16.54 5.65 23.61 c 0.17 0.39 0.36 0.77 0.58 1.16 c 8.84 16.35 26.1 27.43 45.97 27.43 c 12.48 0 23.95 -4.37 32.93 -11.71 c 0.29 -0.24 0.6 -0.48 0.89 -0.77 c 11.25 -9.56 18.37 -23.78 18.37 -39.72 c 0 -28.85 -23.37 -52.22 -52.2 -52.22 Z M 573.99 85.73 c -0.27 0.51 -0.58 0.97 -0.89 1.45 c -7.05 10.67 -19.17 17.75 -32.93 17.75 c -18.71 0 -34.4 -13.09 -38.41 -30.57 c -0.05 -0.12 -0.07 -0.22 -0.1 -0.34 c -0.63 -2.75 -0.94 -5.6 -0.94 -8.52 c 0 -21.75 17.7 -39.45 39.45 -39.45 s 39.45 17.7 39.45 39.45 c 0 7.41 -2.05 14.32 -5.63 20.23 Z" stroke-linecap="round"/>
</g>
		<g transform="matrix(1 0 0 1 237.595 -314.385)" id="Layer_1-2">
<path style="stroke: none; stroke-width: 1; stroke-dasharray: none; stroke-linecap: butt; stroke-dashoffset: 0; stroke-linejoin: miter; stroke-miterlimit: 4; is-custom-font: none; font-file-url: none; fill: rgb(215,215,215); fill-rule: nonzero; opacity: 1;" transform=" translate(-540.16, -65.49)" d="M 540.16 0.53 c -35.8 0 -64.97 29.14 -64.97 64.97 c 0 13.98 4.47 26.97 12.02 37.57 c 0.22 0.31 0.46 0.63 0.68 0.94 c 11.85 16.03 30.88 26.44 52.27 26.44 c 12.02 0 23.27 -3.26 32.93 -8.98 c 0.29 -0.17 0.6 -0.36 0.89 -0.53 c 18.69 -11.42 31.15 -31.97 31.15 -55.43 c 0 -35.83 -29.14 -64.97 -64.97 -64.97 Z M 540.16 104.93 c -18.71 0 -34.4 -13.09 -38.41 -30.57 c -0.05 -0.12 -0.07 -0.22 -0.1 -0.34 c -0.63 -2.75 -0.94 -5.6 -0.94 -8.52 c 0 -21.75 17.7 -39.45 39.45 -39.45 s 39.45 17.7 39.45 39.45 c 0 7.41 -2.05 14.32 -5.63 20.23 c -0.27 0.51 -0.58 0.97 -0.89 1.45 c -7.05 10.67 -19.17 17.75 -32.93 17.75 Z" stroke-linecap="round"/>
</g>
</g>
</g>
<g transform="matrix(0.5075 0 0 0.5075 731.1199 739.3947)" id="28412">
<g style="" vector-effect="non-scaling-stroke">
		<g transform="matrix(1 0 0 1 -321.41 -127.47)" id="Layer_1-2">
<path style="stroke: none; stroke-width: 1; stroke-dasharray: none; stroke-linecap: butt; stroke-dashoffset: 0; stroke-linejoin: miter; stroke-miterlimit: 4; is-custom-font: none; font-file-url: none; fill: rgb(215,215,215); fill-rule: nonzero; opacity: 1;" transform=" translate(-85.665, -86.865)" d="M 0 0.73 h 40.13 l 45.06 131.21 h 0.7 L 130.96 0.73 h 40.37 v 172.27 h -28.87 V 51.27 h -0.94 c -1.41 5.35 -2.82 11.18 -5.4 18.47 l -36.85 103.26 h -26.99 l -36.85 -103.26 c -2.58 -7.29 -4.22 -13.12 -5.4 -18.47 h -0.94 v 121.73 H 0 V 0.73 Z" stroke-linecap="round"/>
</g>
		<g transform="matrix(1 0 0 1 -145.16 -108.645)" id="Layer_1-2">
<path style="stroke: none; stroke-width: 1; stroke-dasharray: none; stroke-linecap: butt; stroke-dashoffset: 0; stroke-linejoin: miter; stroke-miterlimit: 4; is-custom-font: none; font-file-url: none; fill: rgb(215,215,215); fill-rule: nonzero; opacity: 1;" transform=" translate(-261.915, -105.69)" d="M 190.57 105.69 c 0 -39.36 27.22 -70.95 64.07 -70.95 c 23 0 40.84 12.88 49.05 30.61 h 0.94 v -26.73 h 28.63 v 134.37 h -28.63 v -26.24 h -0.94 c -11.27 21.14 -28.16 29.89 -49.05 29.89 c -36.85 0 -64.07 -31.59 -64.07 -70.95 Z M 300.41 105.69 c 0 -24.3 -16.19 -42.28 -39.66 -42.28 s -39.19 17.98 -39.19 42.28 s 15.96 42.28 39.19 42.28 s 39.66 -18.22 39.66 -42.28 Z" stroke-linecap="round"/>
</g>
		<g transform="matrix(1 0 0 1 -9.15 -108.52)" id="Layer_1-2">
<path style="stroke: none; stroke-width: 1; stroke-dasharray: none; stroke-linecap: butt; stroke-dashoffset: 0; stroke-linejoin: miter; stroke-miterlimit: 4; is-custom-font: none; font-file-url: none; fill: rgb(215,215,215); fill-rule: nonzero; opacity: 1;" transform=" translate(-397.925, -105.815)" d="M 358.85 38.63 h 78.15 v 28.43 h -48.58 v 105.94 h -29.57 V 38.63 Z" stroke-linecap="round"/>
</g>
		<g transform="matrix(1 0 0 1 97.505 -127.835)" id="Layer_1-2">
<path style="stroke: none; stroke-width: 1; stroke-dasharray: none; stroke-linecap: butt; stroke-dashoffset: 0; stroke-linejoin: miter; stroke-miterlimit: 4; is-custom-font: none; font-file-url: none; fill: rgb(215,215,215); fill-rule: nonzero; opacity: 1;" transform=" translate(-504.58, -86.5)" d="M 448.26 0 h 29.57 v 88.44 h 17.6 l 29.81 -50.3 h 31.92 l -30.51 50.3 h 34.26 v 84.56 h -29.34 v -55.88 h -53.75 v 55.88 h -29.57 V 0 Z" stroke-linecap="round"/>
</g>
		<g transform="matrix(1 0 0 1 235.27 -108.515)" id="Layer_1-2">
<path style="stroke: none; stroke-width: 1; stroke-dasharray: none; stroke-linecap: butt; stroke-dashoffset: 0; stroke-linejoin: miter; stroke-miterlimit: 4; is-custom-font: none; font-file-url: none; fill: rgb(215,215,215); fill-rule: nonzero; opacity: 1;" transform=" translate(-642.345, -105.82)" d="M 571.71 105.21 c 0 -39.36 30.98 -70.22 70.64 -70.22 s 70.64 30.86 70.64 71.19 c 0 2.19 -0.23 6.07 -0.94 9.72 h -108.9 c 3.28 18.47 19.95 32.32 39.66 32.32 c 15.49 0 28.4 -7.53 34.5 -21.14 h 32.39 c -9.15 28.91 -34.97 49.57 -67.36 49.57 c -39.66 0 -70.64 -32.07 -70.64 -71.43 Z M 680.38 92.82 c -2.58 -16.04 -17.84 -29.4 -38.49 -29.4 s -36.14 12.39 -38.26 29.4 h 76.75 Z" stroke-linecap="round"/>
</g>
		<g transform="matrix(1 0 0 1 341.125 -127.47)" id="Layer_1-2">
<path style="stroke: none; stroke-width: 1; stroke-dasharray: none; stroke-linecap: butt; stroke-dashoffset: 0; stroke-linejoin: miter; stroke-miterlimit: 4; is-custom-font: none; font-file-url: none; fill: rgb(215,215,215); fill-rule: nonzero; opacity: 1;" transform=" translate(-748.2, -86.865)" d="M 733.18 67.06 h -19.95 v -28.43 h 19.95 V 0.73 h 29.34 v 37.9 h 20.65 v 28.43 h -20.65 v 77.51 h 19.95 v 28.43 h -49.29 v -105.94 Z" stroke-linecap="round"/>
</g>
		<g transform="matrix(1 0 0 1 -358.61 89.45)" id="Layer_1-2">
<path style="stroke: none; stroke-width: 1; stroke-dasharray: none; stroke-linecap: butt; stroke-dashoffset: 0; stroke-linejoin: miter; stroke-miterlimit: 4; is-custom-font: none; font-file-url: none; fill: rgb(215,215,215); fill-rule: nonzero; opacity: 1;" transform=" translate(-48.465, -303.785)" d="M 0 217.53 h 29.1 v 143.84 h 67.83 v 28.67 H 0 v -172.51 Z" stroke-linecap="round"/>
</g>
		<g transform="matrix(1 0 0 1 -241.15 108.285)" id="Layer_1-2">
<path style="stroke: none; stroke-width: 1; stroke-dasharray: none; stroke-linecap: butt; stroke-dashoffset: 0; stroke-linejoin: miter; stroke-miterlimit: 4; is-custom-font: none; font-file-url: none; fill: rgb(215,215,215); fill-rule: nonzero; opacity: 1;" transform=" translate(-165.925, -322.62)" d="M 95.29 322.01 c 0 -39.36 30.98 -70.22 70.64 -70.22 s 70.64 30.86 70.64 71.19 c 0 2.19 -0.23 6.07 -0.94 9.72 h -108.9 c 3.29 18.46 19.95 32.32 39.66 32.32 c 15.49 0 28.4 -7.53 34.5 -21.14 h 32.39 c -9.15 28.92 -34.97 49.57 -67.36 49.57 c -39.66 0 -70.64 -32.07 -70.64 -71.43 Z M 203.95 309.61 c -2.58 -16.04 -17.84 -29.4 -38.49 -29.4 s -36.14 12.39 -38.26 29.4 h 76.75 Z" stroke-linecap="round"/>
</g>
		<g transform="matrix(1 0 0 1 -90.95 108.155)" id="Layer_1-2">
<path style="stroke: none; stroke-width: 1; stroke-dasharray: none; stroke-linecap: butt; stroke-dashoffset: 0; stroke-linejoin: miter; stroke-miterlimit: 4; is-custom-font: none; font-file-url: none; fill: rgb(215,215,215); fill-rule: nonzero; opacity: 1;" transform=" translate(-316.125, -322.49)" d="M 244.78 322.49 c 0 -39.36 27.22 -70.95 64.07 -70.95 c 23 0 40.84 12.88 49.05 30.61 h 0.94 v -26.73 h 28.63 v 134.37 h -28.63 v -26.24 h -0.94 c -11.27 21.14 -28.16 29.89 -49.05 29.89 c -36.85 0 -64.07 -31.59 -64.07 -70.95 Z M 354.62 322.49 c 0 -24.3 -16.19 -42.28 -39.66 -42.28 s -39.19 17.98 -39.19 42.28 s 15.96 42.28 39.19 42.28 s 39.66 -18.22 39.66 -42.28 Z" stroke-linecap="round"/>
</g>
		<g transform="matrix(1 0 0 1 59.265 127.71)" id="Layer_1-2">
<path style="stroke: none; stroke-width: 1; stroke-dasharray: none; stroke-linecap: butt; stroke-dashoffset: 0; stroke-linejoin: miter; stroke-miterlimit: 4; is-custom-font: none; font-file-url: none; fill: rgb(215,215,215); fill-rule: nonzero; opacity: 1;" transform=" translate(-466.34, -342.045)" d="M 406.25 391.25 h 28.4 v 12.39 h 74.63 v -4.86 c -4.46 -0.24 -8.68 -1.46 -12.67 -2.92 l -52.34 -15.31 c -27.93 -8.51 -42.95 -34.5 -42.95 -61.23 c 0 -35.72 27.69 -63.9 64.07 -63.9 h 65.25 v 20.9 h -13.61 c -2.82 0 -4.22 -0.49 -6.81 -0.97 h -1.17 c 11.74 10.69 19.25 26.24 19.25 43.98 c 0 25.51 -15.02 46.41 -34.73 52.24 v 1.46 c 5.63 0 10.09 0.49 14.32 1.7 l 23.47 6.8 v 47.14 h -125.09 v -37.42 Z M 498.96 319.33 c 0 -19.92 -14.32 -34.99 -33.56 -35.23 c -20.89 0.24 -34.5 15.06 -34.5 35.23 s 14.32 35.23 33.8 35.23 s 34.27 -15.06 34.27 -35.23 Z" stroke-linecap="round"/>
</g>
		<g transform="matrix(1 0 0 1 198.195 110.1)" id="Layer_1-2">
<path style="stroke: none; stroke-width: 1; stroke-dasharray: none; stroke-linecap: butt; stroke-dashoffset: 0; stroke-linejoin: miter; stroke-miterlimit: 4; is-custom-font: none; font-file-url: none; fill: rgb(215,215,215); fill-rule: nonzero; opacity: 1;" transform=" translate(-605.27, -324.435)" d="M 549.65 337.56 v -82.13 h 29.1 v 83.83 c 0 16.77 10.8 25.76 26.52 25.76 s 26.05 -9.96 26.05 -25.76 v -83.83 h 29.57 v 82.13 c 0 33.04 -23.47 55.88 -55.62 55.88 s -55.62 -22.84 -55.62 -55.88 Z" stroke-linecap="round"/>
</g>
		<g transform="matrix(1 0 0 1 336.42 108.285)" id="Layer_1-2">
<path style="stroke: none; stroke-width: 1; stroke-dasharray: none; stroke-linecap: butt; stroke-dashoffset: 0; stroke-linejoin: miter; stroke-miterlimit: 4; is-custom-font: none; font-file-url: none; fill: rgb(215,215,215); fill-rule: nonzero; opacity: 1;" transform=" translate(-743.495, -322.62)" d="M 672.86 322.01 c 0 -39.36 30.98 -70.22 70.64 -70.22 s 70.64 30.86 70.64 71.19 c 0 2.19 -0.23 6.07 -0.94 9.72 h -108.9 c 3.28 18.46 19.95 32.32 39.66 32.32 c 15.49 0 28.4 -7.53 34.5 -21.14 h 32.39 c -9.15 28.92 -34.97 49.57 -67.36 49.57 c -39.66 0 -70.64 -32.07 -70.64 -71.43 Z M 781.53 309.61 c -2.58 -16.04 -17.84 -29.4 -38.49 -29.4 s -36.14 12.39 -38.26 29.4 h 76.75 Z" stroke-linecap="round"/>
</g>
</g>
</g>
<g transform="matrix(0.4506 0 0 0.4506 731.1199 274.7322)" id="901411">
<g style="" vector-effect="non-scaling-stroke">
		<g transform="matrix(1 0 0 1 -128.125 82.445)" id="Layer_1-2">
<path style="stroke: none; stroke-width: 1; stroke-dasharray: none; stroke-linecap: butt; stroke-dashoffset: 0; stroke-linejoin: miter; stroke-miterlimit: 4; is-custom-font: none; font-file-url: none; fill: rgb(215,215,215); fill-rule: nonzero; opacity: 1;" transform=" translate(-174.44, -462.32)" d="M 174.18 504.58 c -34.79 0 -61.53 -26.08 -61.53 -57.68 v -26.84 h 123.58 v 26.84 c 0 31.6 -27 57.68 -62.05 57.68 Z" stroke-linecap="round"/>
</g>
		<g transform="matrix(1 0 0 1 -0.305 155.7)" id="Layer_1-2">
<path style="stroke: none; stroke-width: 1; stroke-dasharray: none; stroke-linecap: butt; stroke-dashoffset: 0; stroke-linejoin: miter; stroke-miterlimit: 4; is-custom-font: none; font-file-url: none; fill: rgb(215,215,215); fill-rule: nonzero; opacity: 1;" transform=" translate(-302.26, -535.575)" d="M 368.26 420.07 v 26.82 c 0 31.6 26.73 57.68 61.52 57.68 s 62.07 -26.08 62.07 -57.68 v -26.82 h -123.59 Z M 368.26 420.07 v 26.82 c 0 31.6 26.73 57.68 61.52 57.68 s 62.07 -26.08 62.07 -57.68 v -26.82 h -123.59 Z M 368.26 420.07 v 26.82 c 0 31.6 26.73 57.68 61.52 57.68 s 62.07 -26.08 62.07 -57.68 v -26.82 h -123.59 Z M 368.26 420.07 v 26.82 c 0 31.6 26.73 57.68 61.52 57.68 s 62.07 -26.08 62.07 -57.68 v -26.82 h -123.59 Z M 573.58 311.4 H 30.93 c -4.06 35.68 -6.49 77.86 -6.49 128.15 c 0 106.26 27.57 190.61 78.68 241.73 c 47.73 48.5 115.99 75.84 199.14 78.47 c 83.15 -2.63 151.4 -29.96 199.14 -78.47 c 51.11 -51.11 78.68 -135.47 78.68 -241.73 c 0 -50.29 -2.44 -92.47 -6.49 -128.15 Z M 82.28 446.9 v -57.68 h 184.34 v 57.68 c 0 49.4 -41.29 88.78 -92.42 88.78 s -91.91 -39.38 -91.91 -88.78 Z M 467.11 603.42 c -10.02 10.43 -69.87 70.72 -165.82 70.31 c -94.81 -0.39 -153.77 -59.76 -163.89 -70.31 v -30.4 c 12.53 11.81 72.12 65.36 164.76 65.41 c 92.76 0.02 152.44 -53.62 164.95 -65.41 v 30.4 Z M 522.23 446.9 c 0 49.4 -41.29 88.78 -92.45 88.78 s -91.89 -39.38 -91.89 -88.78 v -57.68 h 184.34 v 57.68 Z M 429.78 504.58 c 35.06 0 62.07 -26.08 62.07 -57.68 v -26.82 h -123.59 v 26.82 c 0 31.6 26.73 57.68 61.52 57.68 Z M 368.26 420.07 v 26.82 c 0 31.6 26.73 57.68 61.52 57.68 s 62.07 -26.08 62.07 -57.68 v -26.82 h -123.59 Z M 368.26 420.07 v 26.82 c 0 31.6 26.73 57.68 61.52 57.68 s 62.07 -26.08 62.07 -57.68 v -26.82 h -123.59 Z M 368.26 420.07 v 26.82 c 0 31.6 26.73 57.68 61.52 57.68 s 62.07 -26.08 62.07 -57.68 v -26.82 h -123.59 Z M 368.26 420.07 v 26.82 c 0 31.6 26.73 57.68 61.52 57.68 s 62.07 -26.08 62.07 -57.68 v -26.82 h -123.59 Z" stroke-linecap="round"/>
</g>
		<g transform="matrix(1 0 0 1 -0.02 -187)" id="Layer_1-2">
<path style="stroke: none; stroke-width: 1; stroke-dasharray: none; stroke-linecap: butt; stroke-dashoffset: 0; stroke-linejoin: miter; stroke-miterlimit: 4; is-custom-font: none; font-file-url: none; fill: rgb(215,215,215); fill-rule: nonzero; opacity: 1;" transform=" translate(-302.545, -192.875)" d="M 573.99 85.73 v 224.68 c 0 0.56 -0.43 0.99 -0.99 0.99 h -51.4 c -0.56 0 -0.99 -0.43 -0.99 -0.99 v -165.55 c 0 -0.53 -0.43 -0.97 -0.99 -0.97 c -0.43 0 -0.8 0.27 -0.92 0.68 c -2.15 7.19 -5.12 15.02 -9.71 24.72 l -67.31 141.55 c -0.17 0.34 -0.51 0.56 -0.89 0.56 h -48.26 c -0.39 0 -0.72 -0.22 -0.89 -0.56 l -67.31 -141.55 c -1.93 -4.1 -9.34 -20.76 -17.43 -38.99 c -1.13 -2.58 -2.29 -5.19 -3.45 -7.82 c -0.36 -0.77 -1.45 -0.77 -1.81 0 c -1.16 2.63 -2.32 5.24 -3.45 7.82 c -8.09 18.23 -15.5 34.89 -17.43 38.99 l -67.31 141.55 c -0.17 0.34 -0.51 0.56 -0.89 0.56 h -48.26 c -0.39 0 -0.72 -0.22 -0.89 -0.56 l -67.31 -141.55 c -4.56 -9.71 -7.56 -17.53 -9.71 -24.72 c -0.12 -0.41 -0.48 -0.68 -0.92 -0.68 c -0.56 0 -0.99 0.43 -0.99 0.97 v 165.55 c 0 0.56 -0.43 0.99 -0.99 0.99 h -51.4 c -0.56 0 -0.99 -0.43 -0.99 -0.99 V 85.03 c 2.85 4.8 6.69 8.96 11.23 12.19 c 6.42 4.51 14.24 7.17 22.67 7.17 c 18.52 0 34.09 -12.82 38.32 -30.03 h 0.77 c 0.39 0 0.72 0.22 0.89 0.56 l 6.4 14 l 6.37 13.93 l 69.34 151.48 c 0.17 0.34 0.51 0.58 0.89 0.58 h 0.05 c 0.36 0 0.72 -0.24 0.87 -0.58 l 66.2 -144.6 l 5.84 -12.77 l 6.37 -13.91 c 6.45 12.94 19.85 21.87 35.27 21.87 s 28.8 -8.88 35.25 -21.8 l 6.35 13.91 l 5.84 12.75 l 66.18 144.55 c 0.14 0.34 0.51 0.58 0.89 0.58 h 0.02 c 0.39 0 0.72 -0.24 0.89 -0.58 l 69.22 -151.26 l 6.4 -13.96 l 6.49 -14.2 c 0.17 -0.34 0.51 -0.56 0.89 -0.56 h 0.75 c 4.01 17.48 19.7 30.57 38.41 30.57 c 13.76 0 25.88 -7.07 32.93 -17.75 c 0.31 -0.48 0.63 -0.94 0.89 -1.45 Z" stroke-linecap="round"/>
</g>
		<g transform="matrix(1 0 0 1 -237.595 -314.915)" id="Layer_1-2">
<path style="stroke: none; stroke-width: 1; stroke-dasharray: none; stroke-linecap: butt; stroke-dashoffset: 0; stroke-linejoin: miter; stroke-miterlimit: 4; is-custom-font: none; font-file-url: none; fill: rgb(215,215,215); fill-rule: nonzero; opacity: 1;" transform=" translate(-64.97, -64.96)" d="M 64.97 0 C 29.17 0 0 29.14 0 64.97 c 0 23.42 12.46 43.97 31.07 55.39 c 3.52 2.17 7.29 4.01 11.23 5.48 c 7.05 2.66 14.7 4.08 22.67 4.08 c 21.71 0 40.95 -10.7 52.75 -27.07 c 2.03 -2.82 3.84 -5.79 5.41 -8.93 c 4.37 -8.72 6.81 -18.57 6.81 -28.95 C 129.94 29.14 100.8 0 64.97 0 Z M 64.97 104.4 c -8.43 0 -16.25 -2.66 -22.67 -7.17 c -4.54 -3.24 -8.38 -7.39 -11.23 -12.19 c -3.53 -5.87 -5.53 -12.75 -5.53 -20.06 c 0 -21.75 17.7 -39.45 39.43 -39.45 s 39.45 17.7 39.45 39.45 c 0 3.24 -0.39 6.4 -1.13 9.39 c -4.23 17.21 -19.8 30.03 -38.32 30.03 Z" stroke-linecap="round"/>
</g>
		<g transform="matrix(1 0 0 1 0.005 -314.385)" id="Layer_1-2">
<path style="stroke: none; stroke-width: 1; stroke-dasharray: none; stroke-linecap: butt; stroke-dashoffset: 0; stroke-linejoin: miter; stroke-miterlimit: 4; is-custom-font: none; font-file-url: none; fill: rgb(215,215,215); fill-rule: nonzero; opacity: 1;" transform=" translate(-302.57, -65.49)" d="M 302.57 13.28 c -28.83 0 -52.2 23.37 -52.2 52.22 c 0 11.37 3.65 21.9 9.8 30.47 c 0.24 0.34 0.48 0.65 0.75 0.99 c 8.74 11.59 22.24 19.39 37.59 20.57 c 1.33 0.12 2.68 0.17 4.06 0.17 c 1.55 0 3.04 -0.07 4.54 -0.19 c 15.11 -1.3 28.39 -9.05 37.06 -20.47 c 0.39 -0.48 0.75 -0.99 1.11 -1.5 c 5.99 -8.5 9.49 -18.86 9.49 -30.03 c 0 -28.85 -23.37 -52.22 -52.2 -52.22 Z M 302.57 104.93 c -15.43 0 -28.83 -8.93 -35.27 -21.87 c -0.24 -0.41 -0.43 -0.82 -0.63 -1.26 c -2.25 -4.97 -3.53 -10.48 -3.53 -16.3 c 0 -21.75 17.67 -39.45 39.43 -39.45 s 39.45 17.7 39.45 39.45 c 0 5.6 -1.18 10.91 -3.31 15.74 c -0.27 0.63 -0.58 1.26 -0.89 1.88 c -6.45 12.92 -19.82 21.8 -35.25 21.8 Z" stroke-linecap="round"/>
</g>
		<g transform="matrix(1 0 0 1 0.005 -314.385)" id="Layer_1-2">
<path style="stroke: none; stroke-width: 1; stroke-dasharray: none; stroke-linecap: butt; stroke-dashoffset: 0; stroke-linejoin: miter; stroke-miterlimit: 4; is-custom-font: none; font-file-url: none; fill: rgb(215,215,215); fill-rule: nonzero; opacity: 1;" transform=" translate(-302.57, -65.49)" d="M 302.57 0.53 c -35.8 0 -64.97 29.14 -64.97 64.97 c 0 16.66 6.33 31.89 16.68 43.39 c 0.27 0.29 0.51 0.58 0.8 0.85 c 9.78 10.55 23.11 17.82 38.03 20.01 c 1.67 0.24 3.36 0.43 5.07 0.56 c 1.45 0.1 2.92 0.14 4.39 0.14 s 2.9 -0.05 4.32 -0.14 c 1.91 -0.12 3.79 -0.34 5.65 -0.63 c 14.68 -2.25 27.79 -9.46 37.47 -19.89 c 0.41 -0.41 0.8 -0.84 1.18 -1.28 c 10.19 -11.47 16.35 -26.53 16.35 -43 c 0 -35.83 -29.14 -64.97 -64.97 -64.97 Z M 338.71 81.24 c -0.27 0.63 -0.58 1.26 -0.89 1.88 c -6.45 12.92 -19.82 21.8 -35.25 21.8 s -28.83 -8.93 -35.27 -21.87 c -0.24 -0.41 -0.43 -0.82 -0.63 -1.26 c -2.25 -4.97 -3.53 -10.48 -3.53 -16.3 c 0 -21.75 17.67 -39.45 39.43 -39.45 s 39.45 17.7 39.45 39.45 c 0 5.6 -1.18 10.91 -3.31 15.74 Z" stroke-linecap="round"/>
</g>
		<g transform="matrix(1 0 0 1 237.59 -314.385)" id="Layer_1-2">
<path style="stroke: none; stroke-width: 1; stroke-dasharray: none; stroke-linecap: butt; stroke-dashoffset: 0; stroke-linejoin: miter; stroke-miterlimit: 4; is-custom-font: none; font-file-url: none; fill: rgb(215,215,215); fill-rule: nonzero; opacity: 1;" transform=" translate(-540.155, -65.49)" d="M 540.16 13.28 c -28.83 0 -52.2 23.37 -52.2 52.22 c 0 8.5 2.03 16.54 5.65 23.61 c 0.17 0.39 0.36 0.77 0.58 1.16 c 8.84 16.35 26.1 27.43 45.97 27.43 c 12.48 0 23.95 -4.37 32.93 -11.71 c 0.29 -0.24 0.6 -0.48 0.89 -0.77 c 11.25 -9.56 18.37 -23.78 18.37 -39.72 c 0 -28.85 -23.37 -52.22 -52.2 -52.22 Z M 573.99 85.73 c -0.27 0.51 -0.58 0.97 -0.89 1.45 c -7.05 10.67 -19.17 17.75 -32.93 17.75 c -18.71 0 -34.4 -13.09 -38.41 -30.57 c -0.05 -0.12 -0.07 -0.22 -0.1 -0.34 c -0.63 -2.75 -0.94 -5.6 -0.94 -8.52 c 0 -21.75 17.7 -39.45 39.45 -39.45 s 39.45 17.7 39.45 39.45 c 0 7.41 -2.05 14.32 -5.63 20.23 Z" stroke-linecap="round"/>
</g>
		<g transform="matrix(1 0 0 1 237.595 -314.385)" id="Layer_1-2">
<path style="stroke: none; stroke-width: 1; stroke-dasharray: none; stroke-linecap: butt; stroke-dashoffset: 0; stroke-linejoin: miter; stroke-miterlimit: 4; is-custom-font: none; font-file-url: none; fill: rgb(215,215,215); fill-rule: nonzero; opacity: 1;" transform=" translate(-540.16, -65.49)" d="M 540.16 0.53 c -35.8 0 -64.97 29.14 -64.97 64.97 c 0 13.98 4.47 26.97 12.02 37.57 c 0.22 0.31 0.46 0.63 0.68 0.94 c 11.85 16.03 30.88 26.44 52.27 26.44 c 12.02 0 23.27 -3.26 32.93 -8.98 c 0.29 -0.17 0.6 -0.36 0.89 -0.53 c 18.69 -11.42 31.15 -31.97 31.15 -55.43 c 0 -35.83 -29.14 -64.97 -64.97 -64.97 Z M 540.16 104.93 c -18.71 0 -34.4 -13.09 -38.41 -30.57 c -0.05 -0.12 -0.07 -0.22 -0.1 -0.34 c -0.63 -2.75 -0.94 -5.6 -0.94 -8.52 c 0 -21.75 17.7 -39.45 39.45 -39.45 s 39.45 17.7 39.45 39.45 c 0 7.41 -2.05 14.32 -5.63 20.23 c -0.27 0.51 -0.58 0.97 -0.89 1.45 c -7.05 10.67 -19.17 17.75 -32.93 17.75 Z" stroke-linecap="round"/>
</g>
</g>
</g>
</svg>