<?xml version="1.0" encoding="UTF-8"?><svg id="Layer_2" xmlns="http://www.w3.org/2000/svg" viewBox="0 0 976.72 125.4"><defs><style>.cls-1{fill:#f3b700;}</style></defs><g id="Layer_1-2"><path class="cls-1" d="M108.84,12.21h21.51l24.16,70.34h.38l24.16-70.34h21.64v92.35h-15.48V39.3h-.5c-.75,2.87-1.51,5.99-2.89,9.9l-19.75,55.36h-14.47l-19.75-55.36c-1.38-3.91-2.26-7.03-2.89-9.9h-.5v65.26h-15.6V12.21Z"/><path class="cls-1" d="M211,68.48c0-21.1,14.59-38.03,34.35-38.03,12.33,0,21.89,6.9,26.3,16.41h.5v-14.33h15.35v72.03h-15.35v-14.07h-.5c-6.04,11.33-15.1,16.02-26.3,16.02-19.75,0-34.35-16.93-34.35-38.03ZM269.89,68.48c0-13.02-8.68-22.66-21.26-22.66s-21.01,9.64-21.01,22.66,8.56,22.66,21.01,22.66,21.26-9.77,21.26-22.66Z"/><path class="cls-1" d="M301.21,32.53h41.9v15.24h-26.04v56.79h-15.85V32.53Z"/><path class="cls-1" d="M349.15,11.82h15.85v47.41h9.44l15.98-26.96h17.11l-16.36,26.96h18.37v45.33h-15.73v-29.96h-28.81v29.96h-15.85V11.82Z"/><path class="cls-1" d="M415.33,68.22c0-21.1,16.61-37.64,37.87-37.64s37.87,16.54,37.87,38.16c0,1.17-.13,3.26-.5,5.21h-58.38c1.76,9.9,10.69,17.32,21.26,17.32,8.3,0,15.22-4.04,18.5-11.33h17.36c-4.91,15.5-18.75,26.57-36.11,26.57-21.26,0-37.87-17.19-37.87-38.29ZM473.58,61.58c-1.38-8.6-9.56-15.76-20.63-15.76s-19.38,6.64-20.51,15.76h41.14Z"/><path class="cls-1" d="M501.89,47.77h-10.69v-15.24h10.69V12.21h15.73v20.32h11.07v15.24h-11.07v41.55h10.69v15.24h-26.42v-56.79Z"/><path class="cls-1" d="M540.26,12.21h15.6v77.11h36.36v15.37h-51.96V12.21Z"/><path class="cls-1" d="M591.34,68.22c0-21.1,16.61-37.64,37.87-37.64s37.87,16.54,37.87,38.16c0,1.17-.13,3.26-.5,5.21h-58.38c1.76,9.9,10.69,17.32,21.26,17.32,8.3,0,15.22-4.04,18.5-11.33h17.36c-4.91,15.5-18.75,26.57-36.11,26.57-21.26,0-37.87-17.19-37.87-38.29ZM649.6,61.58c-1.38-8.6-9.56-15.76-20.63-15.76s-19.38,6.64-20.51,15.76h41.14Z"/><path class="cls-1" d="M671.49,68.48c0-21.1,14.59-38.03,34.35-38.03,12.33,0,21.89,6.9,26.3,16.41h.5v-14.33h15.35v72.03h-15.35v-14.07h-.5c-6.04,11.33-15.1,16.02-26.3,16.02-19.75,0-34.35-16.93-34.35-38.03ZM730.37,68.48c0-13.02-8.68-22.66-21.26-22.66s-21.01,9.64-21.01,22.66,8.56,22.66,21.01,22.66,21.26-9.77,21.26-22.66Z"/><path class="cls-1" d="M758.05,105.34h15.22v6.64h40.01v-2.6c-2.39-.13-4.66-.78-6.79-1.56l-28.06-8.21c-14.97-4.56-23.02-18.5-23.02-32.82,0-19.15,14.85-34.26,34.35-34.26h34.98v11.2h-7.3c-1.51,0-2.26-.26-3.65-.52h-.63c6.29,5.73,10.32,14.07,10.32,23.58,0,13.68-8.05,24.88-18.62,28v.78c3.02,0,5.41.26,7.68.91l12.58,3.65v25.27h-67.06v-20.06ZM807.75,66.79c0-10.68-7.68-18.76-17.99-18.89-11.2.13-18.5,8.08-18.5,18.89s7.67,18.89,18.12,18.89,18.37-8.08,18.37-18.89Z"/><path class="cls-1" d="M834.92,76.56v-44.03h15.6v44.94c0,8.99,5.79,13.81,14.22,13.81s13.97-5.34,13.97-13.81v-44.94h15.85v44.03c0,17.71-12.58,29.96-29.82,29.96s-29.82-12.24-29.82-29.96Z"/><path class="cls-1" d="M900.97,68.22c0-21.1,16.61-37.64,37.87-37.64s37.87,16.54,37.87,38.16c0,1.17-.13,3.26-.5,5.21h-58.38c1.76,9.9,10.69,17.32,21.26,17.32,8.3,0,15.22-4.04,18.5-11.33h17.36c-4.91,15.5-18.75,26.57-36.11,26.57-21.26,0-37.87-17.19-37.87-38.29ZM959.23,61.58c-1.38-8.6-9.56-15.76-20.63-15.76s-19.38,6.64-20.51,15.76h41.14Z"/><path class="cls-1" d="M23.97,69.44c-4.79,0-8.47-3.59-8.47-7.94v-3.69h17.01v3.69c0,4.35-3.72,7.94-8.54,7.94Z"/><path class="cls-1" d="M50.68,57.81v3.69c0,4.35,3.68,7.94,8.47,7.94s8.54-3.59,8.54-7.94v-3.69h-17.01ZM50.68,57.81v3.69c0,4.35,3.68,7.94,8.47,7.94s8.54-3.59,8.54-7.94v-3.69h-17.01ZM50.68,57.81v3.69c0,4.35,3.68,7.94,8.47,7.94s8.54-3.59,8.54-7.94v-3.69h-17.01ZM50.68,57.81v3.69c0,4.35,3.68,7.94,8.47,7.94s8.54-3.59,8.54-7.94v-3.69h-17.01ZM78.94,42.86H4.26c-.56,4.91-.89,10.72-.89,17.64,0,14.62,3.79,26.23,10.83,33.27,6.57,6.68,15.96,10.44,27.41,10.8,11.44-.36,20.84-4.12,27.41-10.8,7.03-7.03,10.83-18.64,10.83-33.27,0-6.92-.34-12.73-.89-17.64ZM11.32,61.5v-7.94h25.37v7.94c0,6.8-5.68,12.22-12.72,12.22s-12.65-5.42-12.65-12.22ZM64.29,83.05c-1.38,1.44-9.62,9.73-22.82,9.68-13.05-.05-21.16-8.22-22.55-9.68v-4.18c1.72,1.62,9.93,8.99,22.67,9,12.77,0,20.98-7.38,22.7-9v4.18ZM71.87,61.5c0,6.8-5.68,12.22-12.72,12.22s-12.65-5.42-12.65-12.22v-7.94h25.37v7.94ZM59.15,69.44c4.82,0,8.54-3.59,8.54-7.94v-3.69h-17.01v3.69c0,4.35,3.68,7.94,8.47,7.94ZM50.68,57.81v3.69c0,4.35,3.68,7.94,8.47,7.94s8.54-3.59,8.54-7.94v-3.69h-17.01ZM50.68,57.81v3.69c0,4.35,3.68,7.94,8.47,7.94s8.54-3.59,8.54-7.94v-3.69h-17.01ZM50.68,57.81v3.69c0,4.35,3.68,7.94,8.47,7.94s8.54-3.59,8.54-7.94v-3.69h-17.01ZM50.68,57.81v3.69c0,4.35,3.68,7.94,8.47,7.94s8.54-3.59,8.54-7.94v-3.69h-17.01Z"/><path class="cls-1" d="M79,11.8v30.92c0,.08-.06.14-.14.14h-7.07c-.08,0-.14-.06-.14-.14v-22.78c0-.07-.06-.13-.14-.13-.06,0-.11.04-.13.09-.3.99-.7,2.07-1.34,3.4l-9.26,19.48s-.07.08-.12.08h-6.64c-.05,0-.1-.03-.12-.08l-9.26-19.48c-.27-.56-1.29-2.86-2.4-5.37-.16-.36-.32-.71-.48-1.08-.05-.11-.2-.11-.25,0-.16.36-.32.72-.48,1.08-1.11,2.51-2.13,4.8-2.4,5.37l-9.26,19.48s-.07.08-.12.08h-6.64c-.05,0-.1-.03-.12-.08l-9.26-19.48c-.63-1.34-1.04-2.41-1.34-3.4-.02-.06-.07-.09-.13-.09-.08,0-.14.06-.14.13v22.78c0,.08-.06.14-.14.14h-7.07c-.08,0-.14-.06-.14-.14V11.7c.39.66.92,1.23,1.55,1.68.88.62,1.96.99,3.12.99,2.55,0,4.69-1.76,5.27-4.13h.11c.05,0,.1.03.12.08l.88,1.93.88,1.92,9.54,20.85s.07.08.12.08h0s.1-.03.12-.08l9.11-19.9.8-1.76.88-1.91c.89,1.78,2.73,3.01,4.85,3.01s3.96-1.22,4.85-3l.87,1.91.8,1.75,9.11,19.89s.07.08.12.08h0c.05,0,.1-.03.12-.08l9.53-20.82.88-1.92.89-1.95s.07-.08.12-.08h.1c.55,2.41,2.71,4.21,5.29,4.21,1.89,0,3.56-.97,4.53-2.44.04-.07.09-.13.12-.2Z"/><path class="cls-1" d="M8.94,0C4.01,0,0,4.01,0,8.94c0,3.22,1.71,6.05,4.28,7.62.49.3,1,.55,1.55.75.97.37,2.02.56,3.12.56,2.99,0,5.64-1.47,7.26-3.72.28-.39.53-.8.74-1.23.6-1.2.94-2.56.94-3.98C17.88,4.01,13.87,0,8.94,0ZM8.94,14.37c-1.16,0-2.24-.37-3.12-.99-.62-.45-1.15-1.02-1.55-1.68-.49-.81-.76-1.75-.76-2.76,0-2.99,2.44-5.43,5.43-5.43s5.43,2.44,5.43,5.43c0,.45-.05.88-.16,1.29-.58,2.37-2.72,4.13-5.27,4.13Z"/><path class="cls-1" d="M41.64,1.83c-3.97,0-7.18,3.22-7.18,7.19,0,1.57.5,3.01,1.35,4.19.03.05.07.09.1.14,1.2,1.59,3.06,2.67,5.17,2.83.18.02.37.02.56.02.21,0,.42,0,.62-.03,2.08-.18,3.91-1.25,5.1-2.82.05-.07.1-.14.15-.21.82-1.17,1.31-2.6,1.31-4.13,0-3.97-3.22-7.19-7.18-7.19ZM41.64,14.44c-2.12,0-3.97-1.23-4.85-3.01-.03-.06-.06-.11-.09-.17-.31-.68-.49-1.44-.49-2.24,0-2.99,2.43-5.43,5.43-5.43s5.43,2.44,5.43,5.43c0,.77-.16,1.5-.46,2.17-.04.09-.08.17-.12.26-.89,1.78-2.73,3-4.85,3Z"/><path class="cls-1" d="M41.64.07c-4.93,0-8.94,4.01-8.94,8.94,0,2.29.87,4.39,2.3,5.97.04.04.07.08.11.12,1.35,1.45,3.18,2.45,5.23,2.75.23.03.46.06.7.08.2.01.4.02.6.02s.4,0,.59-.02c.26-.02.52-.05.78-.09,2.02-.31,3.82-1.3,5.16-2.74.06-.06.11-.12.16-.18,1.4-1.58,2.25-3.65,2.25-5.92C50.58,4.08,46.57.07,41.64.07ZM46.62,11.18c-.04.09-.08.17-.12.26-.89,1.78-2.73,3-4.85,3s-3.97-1.23-4.85-3.01c-.03-.06-.06-.11-.09-.17-.31-.68-.49-1.44-.49-2.24,0-2.99,2.43-5.43,5.43-5.43s5.43,2.44,5.43,5.43c0,.77-.16,1.5-.46,2.17Z"/><path class="cls-1" d="M74.34,1.83c-3.97,0-7.18,3.22-7.18,7.19,0,1.17.28,2.28.78,3.25.02.05.05.11.08.16,1.22,2.25,3.59,3.77,6.33,3.77,1.72,0,3.3-.6,4.53-1.61.04-.03.08-.07.12-.11,1.55-1.32,2.53-3.27,2.53-5.47,0-3.97-3.22-7.19-7.18-7.19ZM79,11.8c-.04.07-.08.13-.12.2-.97,1.47-2.64,2.44-4.53,2.44-2.58,0-4.73-1.8-5.29-4.21,0-.02,0-.03-.01-.05-.09-.38-.13-.77-.13-1.17,0-2.99,2.44-5.43,5.43-5.43s5.43,2.44,5.43,5.43c0,1.02-.28,1.97-.77,2.78Z"/><path class="cls-1" d="M74.34.07c-4.93,0-8.94,4.01-8.94,8.94,0,1.92.61,3.71,1.65,5.17.03.04.06.09.09.13,1.63,2.21,4.25,3.64,7.19,3.64,1.65,0,3.2-.45,4.53-1.24.04-.02.08-.05.12-.07,2.57-1.57,4.29-4.4,4.29-7.63,0-4.93-4.01-8.94-8.94-8.94ZM74.34,14.44c-2.58,0-4.73-1.8-5.29-4.21,0-.02,0-.03-.01-.05-.09-.38-.13-.77-.13-1.17,0-2.99,2.44-5.43,5.43-5.43s5.43,2.44,5.43,5.43c0,1.02-.28,1.97-.77,2.78-.04.07-.08.13-.12.2-.97,1.47-2.64,2.44-4.53,2.44Z"/></g></svg>