<svg xmlns="http://www.w3.org/2000/svg" xmlns:xlink="http://www.w3.org/1999/xlink" version="1.1" id="Layer_1" x="0px" y="0px" width="122.879px" height="122.879px" viewBox="0 0 122.879 122.879" enable-background="new 0 0 122.879 122.879" xml:space="preserve"><g><path fill-rule="evenodd" clip-rule="evenodd" d="M104.885,17.995c23.993,23.994,23.993,62.896,0,86.89 c-23.994,23.993-62.896,23.993-86.89,0c-23.993-23.994-23.993-62.896,0-86.89C41.989-5.998,80.891-5.998,104.885,17.995 L104.885,17.995z M93.607,57.949c1.928,0,3.49,1.563,3.49,3.49c0,1.928-1.563,3.49-3.49,3.49c-21.445,0-42.891,0-64.335,0 c-1.928,0-3.491-1.563-3.491-3.49c0-1.927,1.563-3.49,3.491-3.49C50.717,57.949,72.162,57.949,93.607,57.949L93.607,57.949z" fill="#FF4242"/></g></svg>